<?xml version="1.0" encoding="utf-8"?>
<!-- Generator: Adobe Illustrator 17.0.0, SVG Export Plug-In . SVG Version: 6.00 Build 0)  -->
<!DOCTYPE svg PUBLIC "-//W3C//DTD SVG 1.1//EN" "http://www.w3.org/Graphics/SVG/1.1/DTD/svg11.dtd">
<svg version="1.1" id="Layer_1" xmlns="http://www.w3.org/2000/svg" xmlns:xlink="http://www.w3.org/1999/xlink" x="0px" y="0px"
	 width="110px" height="110px" viewBox="0 0 110 110" enable-background="new 0 0 110 110" xml:space="preserve">
<polygon fill="#F5DD00" points="-0.499,0 110,110.499 110,49.554 60.446,0 "/>
<g>
	<path fill="#222221" d="M58.368,13.38l6.498,6.498c1.393,1.393,2.09,2.767,2.222,4.066c0.131,1.413-0.339,2.675-1.413,3.748
		c-1.337,1.337-2.881,1.488-4.519,0.754l-0.058,0.057c1.017,1.92,0.716,4.105-0.885,5.706c-1.357,1.357-2.825,1.845-4.388,1.638
		c-1.413-0.169-2.862-0.941-4.275-2.354l-6.648-6.647L58.368,13.38z M53.849,30.441c1.092,1.092,2.391,1.148,3.352,0.188
		c1.073-1.073,0.828-2.41-0.188-3.426l-2.938-2.938l-3.201,3.201L53.849,30.441z M59.046,24.716
		c0.961,0.961,2.091,1.148,2.976,0.264c0.849-0.849,0.716-1.958-0.264-2.938l-2.73-2.73l-2.694,2.694L59.046,24.716z"/>
	<path fill="#222221" d="M61.753,34.016c2.882-2.882,7.101-3.071,10.039-0.132c1.375,1.375,2.015,2.918,2.09,4.5
		c0.094,2.204-1.016,4.444-2.995,6.385l-6.93-6.93c-1.111,1.488-1.205,3.013,0.057,4.274c0.809,0.809,1.695,0.98,2.562,0.64
		l2.994,2.995c-1.073,0.66-2.466,0.922-3.899,0.66c-1.375-0.246-2.672-0.905-3.898-2.129C58.59,41.097,58.835,36.934,61.753,34.016z
		 M69.606,39.835c1.036-1.263,1.054-2.713,0.058-3.71c-1.168-1.168-2.506-1.038-3.862-0.095L69.606,39.835z"/>
	<path fill="#222221" d="M70.828,47.685l5.178-5.178l-1.281-1.281l1.921-1.921l1.281,1.281l3.051-3.051l2.992,2.995l-3.05,3.05
		l1.751,1.751l-1.921,1.921L79,45.5l-4.519,4.519c-0.754,0.754-0.527,1.357,0.132,2.015c0.262,0.265,0.583,0.546,0.696,0.66
		l-2.241,2.241c-0.338-0.189-0.998-0.697-1.826-1.525C69.452,51.62,68.756,49.756,70.828,47.685z"/>
	<path fill="#222221" d="M76.306,52.861c2.128-2.127,4.463-1.073,6.723,0.66c2.033,1.583,2.862,2.033,3.521,1.375
		c0.621-0.622,0.64-1.431-0.282-2.354c-0.98-0.979-1.902-1.036-2.806-0.32l-2.825-2.825c1.865-1.713,4.764-1.863,7.683,1.054
		c1.45,1.45,2.166,2.694,2.336,3.917c0.226,1.432-0.323,2.769-1.526,3.975L84.271,63.2c-0.772,0.772-1.129,1.281-1.035,1.714
		l-0.131,0.132l-2.976-2.976c0.055-0.359,0.338-0.829,0.752-1.394l-0.037-0.039c-1.375,0.246-2.73-0.094-4.182-1.543
		C74.742,57.174,74.404,54.764,76.306,52.861z M83.273,58.322l1.148-1.148c-0.602-0.188-1.318-0.603-2.09-1.074
		c-1.45-0.922-2.241-1.111-2.976-0.378c-0.773,0.773-0.508,1.639,0.246,2.393C80.75,59.263,82.238,59.357,83.273,58.322z"/>
</g>
</svg>
