<?xml version="1.0" encoding="utf-8"?>
<!-- Generator: Adobe Illustrator 16.0.4, SVG Export Plug-In . SVG Version: 6.00 Build 0)  -->
<!DOCTYPE svg PUBLIC "-//W3C//DTD SVG 1.1//EN" "http://www.w3.org/Graphics/SVG/1.1/DTD/svg11.dtd">
<svg version="1.1" id="Layer_1" xmlns="http://www.w3.org/2000/svg" xmlns:xlink="http://www.w3.org/1999/xlink" x="0px" y="0px"
	 width="128px" height="40px" viewBox="0 0 128 40" enable-background="new 0 0 128 40" xml:space="preserve">
<g>
	<g>
		<g>
			<path d="M106.498,1.034c1.208-0.278,2.662-0.265,3.595,0.666c1.03,1.033,1.291,2.553,1.496,3.938
				c0.29,2.766,0.142,5.558,0.011,8.33c-0.38,5.344-1.182,10.85-3.88,15.568c-0.27,0.573-0.88,1.076-0.738,1.771
				c0.13,1.296,0.314,2.615,0.82,3.827c0.286,0.719,0.928,1.403,1.76,1.342c1.502-0.019,1.874-2.582,3.549-1.749
				c-0.1-0.466-0.165-1.021,0.217-1.384c0.474-0.388,1.183-0.468,1.729-0.186c1.041,0.521,1.812,1.436,2.835,1.981
				c0.938,0.525,2.146,0.743,3.127,0.211c0.475-0.221,0.795-0.768,0.658-1.294c-0.18-0.941-0.939-1.606-1.616-2.217
				c-1.909-1.604-4.134-2.904-5.617-4.959c-0.993-1.34-1.459-3.137-0.958-4.763c0.475-1.56,1.765-2.718,3.163-3.478
				c2.033-1.099,4.34-1.679,6.648-1.787c1.03-0.017,2.367,0.178,2.809,1.26c0.23,0.804-0.04,1.648-0.32,2.402
				c-0.367,0.922-1.139,1.867-2.218,1.847c-0.632-0.254-1.033-0.853-1.638-1.147c-0.563-0.163-1.166-0.056-1.716,0.097
				c-1.913,0.511-2.859,3.185-1.586,4.733c1.914,2.393,4.761,3.79,6.771,6.088c0.438,0.486,0.732,1.09,0.813,1.74v0.062
				c-0.044,1.464-1.306,2.477-2.615,2.865c-2.449,0.73-5.112,0.739-7.569,0.039c-0.992-0.273-1.932-0.766-2.628-1.534
				c0.007,1.803-1.935,2.646-3.432,2.979c-1.678,0.22-3.593,0.021-4.936-1.096c-1.262-1.369-1.704-3.297-1.911-5.093
				c-0.416,1.688-1.414,3.211-2.695,4.37c-2.385,2.182-6.166,2.484-8.981,0.998c-2.066-1.123-3.187-3.392-3.592-5.632
				c-0.949,2.602-2.847,5.062-5.576,5.915c-2.277,0.686-4.96,0.615-6.936-0.827c-1.45-1.088-2.553-2.705-2.894-4.498
				c-0.447,1.897-1.188,3.852-2.673,5.182c-1.141,1.041-2.974,1.171-4.256,0.314c-1.165-0.768-1.841-2.064-2.272-3.354
				c-0.685-2.136-0.911-4.39-0.949-6.623c-0.037-2.021,0.327-4.025,0.335-6.046c-0.218-0.762-1.245-0.474-1.839-0.533
				c-0.094,0.092-0.282,0.282-0.376,0.374c-0.511,3.486-0.66,7.092-2.019,10.386c-0.647,1.83-1.646,3.697-3.368,4.721
				c-1.352,0.83-3.179,0.431-4.282-0.641c-1.013-0.94-1.457-2.309-1.68-3.637c-0.604,1.764-1.282,3.564-2.51,5.001
				c-0.795,0.91-2.036,1.657-3.284,1.311c-1.291-0.36-2.844-0.181-3.814-1.283c-1.816-1.973-2.163-4.82-2.277-7.394
				c-0.004-4.049,0.246-8.193,1.65-12.032c0.555-1.426,1.349-2.85,2.632-3.74c1.199-0.851,2.788-0.919,4.175-0.583
				c1.034,0.333,1.93,1.002,3.004,1.225c1.292,0.229,2.285,1.327,2.625,2.558c0.516,1.752,0.083,3.617,0.46,5.382
				c0.418,0.287,0.916,0.449,1.311,0.775c0.436,0.46,0.188,1.114,0.023,1.635c-0.605,1.795-0.551,3.719-0.481,5.585
				c0.108,1.113,0.194,2.302,0.823,3.262c0.378,0.601,1.268,0.764,1.812,0.297c0.927-0.791,1.343-1.993,1.689-3.122
				c1.274-4.884,0.766-9.979,0.588-14.953c0.192-0.812,1.139-1.101,1.853-1.301c0.553-0.106,1.425-0.306,1.671,0.382
				c0.307,0.918-0.032,1.902,0.135,2.842c0.98,0.5,2.154,0.268,3.216,0.451c1.175,0.17,2.651,0.19,3.411,1.25
				c0.213,0.986-0.359,1.928-0.611,2.859c-0.749,2.709-1.06,5.537-1.018,8.346c0.067,1.276,0.171,2.576,0.577,3.796
				c0.16,0.438,0.373,0.949,0.863,1.109c0.882,0.021,1.479-0.774,1.882-1.465c0.978-1.8,1.451-3.823,1.867-5.812
				c0.17-0.782,0.479-1.533,0.526-2.337c0.225-2.789,1.235-5.592,3.231-7.6c1.979-1.993,4.726-3.406,7.591-3.285
				c0.828,0.061,1.763,0.203,2.371,0.827c0.299,1.213,0.191,2.487,0.243,3.728c-0.057,0.819,0.091,1.751-0.386,2.469
				c-0.347,0.494-1.033,0.188-1.333-0.191c-0.645-0.933-0.73-2.169-1.535-3.004c-0.669-0.702-1.795-0.728-2.609-0.28
				c-1.188,0.632-1.892,1.875-2.353,3.092c-1.066,3.06-1.32,6.45-0.45,9.594c0.365,1.322,1.111,2.651,2.387,3.279
				c1.627,0.745,3.701,0.52,5.058-0.683c1.189-1.005,1.767-2.483,2.516-3.802c0.166-0.452,0.666-0.406,1.06-0.412
				c-0.278-3.806,0.413-7.769,2.299-11.116c0.975-1.703,2.602-3.245,4.642-3.423c1.908-0.241,3.799,0.905,4.667,2.579
				c0.969,1.741,0.779,3.855,0.271,5.705c-0.645,2.118-1.746,4.303-3.743,5.432c-1.108,0.665-2.448,0.669-3.676,0.405
				c0.008,0.851-0.068,1.735,0.222,2.556c0.456,1.347,1.488,2.566,2.885,2.984c1.599,0.413,3.42-0.018,4.585-1.212
				c0.875-0.9,1.393-2.089,1.757-3.276c0.375-1.137,0.411-2.385,1.009-3.444c-0.107-3.314-0.215-6.642-0.011-9.958
				c0.217-3.314,0.485-6.634,0.998-9.919c0.361-1.835,0.634-3.731,1.452-5.435C105.28,1.61,105.851,1.179,106.498,1.034z
				 M108.124,5.536c-0.663,0.683-0.812,1.647-0.985,2.542c-0.377,2.252-0.477,4.539-0.578,6.817
				c-0.124,3.918-0.178,7.845,0.008,11.762c1.996-4.713,2.711-9.86,2.732-14.949c-0.002-1.789,0.123-3.635-0.448-5.357
				C108.745,5.977,108.409,5.758,108.124,5.536z M44.141,18.515c-1.258,0.974-1.827,2.555-2.255,4.03
				c-0.893,3.629-1.149,7.455-0.523,11.149c0.176,0.843,0.365,1.746,0.935,2.418c0.457,0.531,1.241,0.401,1.819,0.172
				c1.233-0.48,1.888-1.754,2.298-2.933c0.917-2.93,0.984-6.022,1.351-9.044c0.03-0.564,0.455-0.955,0.829-1.321
				c0.011-1.421-0.086-2.97-0.958-4.156C46.851,17.721,45.148,17.705,44.141,18.515z M94.605,20.037
				c-0.807,1.112-1.258,2.437-1.611,3.751c-0.311,1.286-0.634,2.619-0.397,3.947c1.242,0.366,2.528-0.289,3.181-1.357
				c1.096-1.746,1.577-3.844,1.583-5.893c0.003-0.559-0.272-1.289-0.902-1.368C95.712,18.95,95.034,19.487,94.605,20.037z"/>
		</g>
		<g>
			<path d="M21.042,1.75c3.003-0.296,6.147-0.288,9.003,0.804c2.126,0.772,3.814,2.48,4.742,4.524
				c2.947,6.442,1.17,14.646-4.085,19.369c-1.939,1.749-4.474,2.943-7.117,2.937c-1.114-0.02-2.032-0.731-2.952-1.273
				c-0.285,3.111-0.478,6.237-0.323,9.359c0.012,0.759,0.353,1.455,0.652,2.139c-0.354,0.239-0.727,0.503-1.175,0.494
				c-0.932,0.036-1.968,0-2.742-0.582c-0.772-0.653-0.97-1.708-1.151-2.65c-0.294-2.056-0.294-4.138-0.336-6.205
				c-0.092-8.543,0.178-17.123,1.457-25.581c-2.996,0.796-5.91,2.004-8.51,3.702C7.54,9.499,6.39,10.302,6.168,11.564
				c0.07,1.211,0.789,2.29,0.869,3.501c-0.016,0.585-0.206,1.431-0.923,1.485c-2.233,0.166-4.246-1.762-4.373-3.962V12.48
				C1.808,10.767,2.82,9.271,4.062,8.16c1.952-1.736,4.332-2.906,6.749-3.851C14.099,3.048,17.542,2.168,21.042,1.75z M18.107,4.848
				c1.341,0.239,3.015,0.875,3.367,2.343c-0.12,4.66-0.35,9.324-0.519,13.984c-0.034,1.364-0.173,2.76,0.178,4.095
				c0.167,0.706,0.881,1.128,1.574,1.132c1.564,0.136,2.861-0.965,3.895-2.001c2.155-2.295,3.686-5.12,4.802-8.044
				c0.877-2.388,1.465-5.091,0.538-7.553c-0.747-1.988-2.688-3.24-4.672-3.743C24.284,4.291,21.13,4.293,18.107,4.848z"/>
		</g>
	</g>
	<g>
		<g>
			<path fill="#FFFFFF" d="M105.509,0.047c1.208-0.28,2.662-0.266,3.596,0.666c1.032,1.032,1.291,2.552,1.495,3.937
				c0.293,2.766,0.145,5.558,0.012,8.329c-0.378,5.346-1.183,10.851-3.879,15.569c-0.271,0.572-0.879,1.077-0.739,1.77
				c0.131,1.298,0.314,2.617,0.82,3.829c0.286,0.718,0.93,1.401,1.762,1.341c1.501-0.019,1.872-2.582,3.548-1.75
				c-0.101-0.464-0.165-1.02,0.217-1.382c0.475-0.388,1.184-0.468,1.728-0.186c1.042,0.52,1.812,1.436,2.835,1.982
				c0.94,0.523,2.148,0.742,3.129,0.209c0.476-0.22,0.796-0.768,0.657-1.292c-0.181-0.942-0.939-1.606-1.614-2.218
				c-1.91-1.604-4.135-2.904-5.618-4.96c-0.992-1.34-1.459-3.137-0.96-4.762c0.475-1.56,1.768-2.719,3.164-3.479
				c2.035-1.098,4.341-1.678,6.65-1.786c1.029-0.018,2.366,0.178,2.806,1.261c0.232,0.802-0.038,1.648-0.32,2.401
				c-0.365,0.921-1.137,1.866-2.218,1.847c-0.629-0.256-1.032-0.854-1.636-1.147c-0.564-0.163-1.165-0.056-1.718,0.096
				c-1.912,0.512-2.858,3.184-1.584,4.733c1.912,2.395,4.762,3.792,6.771,6.087c0.438,0.486,0.733,1.091,0.813,1.742v0.062
				c-0.046,1.462-1.305,2.478-2.617,2.865c-2.447,0.729-5.11,0.738-7.567,0.038c-0.993-0.271-1.931-0.766-2.63-1.534
				c0.01,1.803-1.934,2.647-3.43,2.979c-1.678,0.222-3.592,0.021-4.936-1.095c-1.263-1.369-1.704-3.297-1.913-5.095
				c-0.415,1.688-1.411,3.212-2.692,4.373c-2.386,2.182-6.168,2.483-8.984,0.996c-2.065-1.124-3.186-3.392-3.591-5.63
				c-0.95,2.6-2.848,5.061-5.574,5.913c-2.277,0.687-4.96,0.616-6.937-0.828c-1.45-1.085-2.552-2.703-2.896-4.498
				c-0.444,1.898-1.186,3.854-2.671,5.182c-1.143,1.042-2.973,1.173-4.255,0.314c-1.166-0.767-1.843-2.063-2.273-3.352
				c-0.686-2.136-0.911-4.39-0.95-6.624c-0.036-2.021,0.328-4.025,0.336-6.044c-0.219-0.762-1.244-0.475-1.84-0.535
				c-0.094,0.092-0.281,0.283-0.376,0.375c-0.51,3.486-0.66,7.091-2.018,10.385c-0.647,1.831-1.646,3.698-3.367,4.722
				c-1.353,0.83-3.179,0.431-4.282-0.64c-1.012-0.942-1.456-2.311-1.68-3.638c-0.604,1.764-1.283,3.563-2.509,4.999
				c-0.796,0.913-2.036,1.657-3.284,1.312c-1.292-0.36-2.846-0.181-3.814-1.282c-1.816-1.975-2.164-4.821-2.278-7.394
				c-0.005-4.049,0.245-8.195,1.65-12.034c0.555-1.425,1.349-2.85,2.631-3.739c1.201-0.85,2.788-0.92,4.176-0.584
				c1.033,0.333,1.93,1.003,3.003,1.226c1.292,0.228,2.285,1.327,2.624,2.558c0.517,1.752,0.083,3.617,0.46,5.382
				c0.417,0.289,0.916,0.449,1.311,0.775c0.435,0.462,0.188,1.116,0.022,1.636c-0.604,1.795-0.549,3.718-0.48,5.586
				c0.109,1.113,0.194,2.301,0.824,3.261c0.377,0.602,1.268,0.764,1.812,0.297c0.925-0.79,1.343-1.993,1.688-3.122
				c1.273-4.884,0.766-9.978,0.588-14.953c0.191-0.812,1.138-1.101,1.853-1.3c0.553-0.107,1.426-0.307,1.671,0.381
				c0.307,0.919-0.031,1.902,0.136,2.842c0.98,0.501,2.152,0.269,3.215,0.452c1.175,0.17,2.652,0.189,3.41,1.249
				c0.212,0.987-0.357,1.928-0.61,2.859c-0.749,2.709-1.06,5.537-1.018,8.347c0.065,1.275,0.171,2.575,0.578,3.794
				c0.16,0.44,0.372,0.952,0.861,1.112c0.881,0.019,1.48-0.775,1.882-1.465c0.978-1.801,1.451-3.823,1.868-5.813
				c0.169-0.783,0.477-1.532,0.524-2.338c0.227-2.788,1.237-5.592,3.233-7.6c1.979-1.993,4.726-3.407,7.59-3.285
				c0.829,0.061,1.763,0.203,2.37,0.827c0.301,1.213,0.191,2.488,0.245,3.728c-0.057,0.819,0.089,1.752-0.387,2.469
				c-0.346,0.494-1.032,0.188-1.332-0.191c-0.645-0.932-0.732-2.168-1.534-3.002c-0.67-0.704-1.798-0.729-2.612-0.28
				c-1.188,0.631-1.891,1.874-2.351,3.091c-1.068,3.06-1.32,6.45-0.452,9.595c0.368,1.321,1.113,2.652,2.388,3.279
				c1.629,0.746,3.7,0.52,5.059-0.684c1.188-1.004,1.765-2.482,2.515-3.8c0.166-0.453,0.666-0.408,1.06-0.414
				c-0.277-3.805,0.414-7.769,2.3-11.115c0.976-1.702,2.602-3.246,4.642-3.423c1.909-0.241,3.798,0.905,4.665,2.58
				c0.97,1.741,0.781,3.854,0.271,5.705c-0.644,2.119-1.745,4.302-3.742,5.433c-1.106,0.662-2.447,0.667-3.677,0.403
				c0.01,0.852-0.068,1.736,0.225,2.557c0.453,1.345,1.488,2.564,2.884,2.983c1.599,0.412,3.42-0.019,4.584-1.21
				c0.876-0.903,1.395-2.091,1.757-3.278c0.376-1.137,0.41-2.384,1.011-3.442c-0.109-3.316-0.218-6.643-0.011-9.959
				c0.215-3.315,0.482-6.635,0.997-9.919c0.36-1.835,0.634-3.732,1.452-5.435C104.293,0.622,104.862,0.192,105.509,0.047z
				 M107.136,4.548c-0.662,0.682-0.813,1.647-0.983,2.541c-0.379,2.253-0.479,4.54-0.581,6.817
				c-0.123,3.919-0.176,7.845,0.01,11.761c1.995-4.711,2.712-9.858,2.73-14.947c-0.001-1.789,0.124-3.636-0.448-5.358
				C107.757,4.99,107.42,4.771,107.136,4.548z M43.153,17.527c-1.258,0.974-1.826,2.556-2.255,4.03
				c-0.892,3.63-1.149,7.457-0.522,11.15c0.175,0.843,0.364,1.744,0.934,2.419c0.456,0.529,1.241,0.4,1.819,0.17
				c1.233-0.481,1.888-1.754,2.297-2.934c0.918-2.928,0.986-6.021,1.352-9.042c0.029-0.565,0.455-0.956,0.829-1.32
				c0.011-1.422-0.088-2.972-0.958-4.157C45.863,16.733,44.16,16.717,43.153,17.527z M93.616,19.049
				c-0.807,1.112-1.258,2.436-1.61,3.75c-0.31,1.288-0.634,2.619-0.396,3.948c1.241,0.364,2.527-0.29,3.181-1.358
				c1.093-1.745,1.577-3.844,1.583-5.892c0.001-0.56-0.273-1.29-0.904-1.368C94.726,17.963,94.047,18.499,93.616,19.049z"/>
		</g>
		<g>
			<path fill="#FFFFFF" d="M20.054,0.762c3.004-0.295,6.146-0.288,9.004,0.805c2.126,0.771,3.812,2.481,4.742,4.524
				c2.947,6.442,1.169,14.646-4.085,19.37c-1.939,1.748-4.475,2.944-7.117,2.935c-1.115-0.02-2.032-0.729-2.952-1.272
				c-0.286,3.111-0.478,6.237-0.323,9.359c0.011,0.76,0.353,1.456,0.651,2.14c-0.354,0.239-0.726,0.502-1.174,0.494
				c-0.931,0.037-1.969,0-2.742-0.584c-0.771-0.652-0.97-1.707-1.149-2.649c-0.295-2.055-0.295-4.137-0.336-6.205
				c-0.092-8.543,0.177-17.122,1.457-25.58C13.033,4.892,10.119,6.101,7.52,7.8c-0.967,0.711-2.118,1.515-2.338,2.777
				c0.069,1.212,0.789,2.289,0.868,3.501c-0.016,0.585-0.205,1.43-0.922,1.485c-2.234,0.167-4.246-1.762-4.373-3.961v-0.108
				c0.065-1.713,1.078-3.209,2.32-4.321c1.952-1.736,4.332-2.906,6.749-3.851C13.112,2.061,16.555,1.182,20.054,0.762z M17.12,3.859
				c1.341,0.24,3.015,0.875,3.366,2.344c-0.119,4.66-0.349,9.324-0.519,13.983c-0.034,1.363-0.173,2.762,0.178,4.097
				c0.167,0.703,0.882,1.127,1.574,1.13c1.565,0.137,2.862-0.965,3.895-2.001c2.155-2.294,3.686-5.119,4.802-8.044
				c0.878-2.386,1.464-5.09,0.537-7.553c-0.747-1.988-2.689-3.238-4.672-3.743C23.297,3.303,20.143,3.305,17.12,3.859z"/>
		</g>
	</g>
</g>
<g>
</g>
<g>
</g>
<g>
</g>
<g>
</g>
<g>
</g>
</svg>
