<?xml version="1.0" encoding="utf-8"?>
<!-- Generator: Adobe Illustrator 17.0.0, SVG Export Plug-In . SVG Version: 6.00 Build 0)  -->
<!DOCTYPE svg PUBLIC "-//W3C//DTD SVG 1.1//EN" "http://www.w3.org/Graphics/SVG/1.1/DTD/svg11.dtd">
<svg version="1.1" id="Layer_4" xmlns="http://www.w3.org/2000/svg" xmlns:xlink="http://www.w3.org/1999/xlink" x="0px" y="0px"
	 width="612px" height="534px" viewBox="0 0 612 534" enable-background="new 0 0 612 534" xml:space="preserve">
<path fill="#F63B0A" d="M367.642,460h-61.619h-61.619c0,46-23.157,56-23.157,56h84.776h84.776C390.799,516,367.642,506,367.642,460z
	"/>
<rect x="221.023" y="516" fill="#CA4E1A" width="170" height="18"/>
<path fill="#612C0D" d="M306.023,490.013c-4.642,0-8,3.763-8,8.405V534h16v-35.583C314.023,493.776,310.665,490.013,306.023,490.013
	z"/>
<defs>
	<filter id="Adobe_OpacityMaskFilter" filterUnits="userSpaceOnUse" x="239.023" y="462" width="133" height="9">
		<feColorMatrix  type="matrix" values="1 0 0 0 0  0 1 0 0 0  0 0 1 0 0  0 0 0 1 0"/>
	</filter>
</defs>
<mask maskUnits="userSpaceOnUse" x="239.023" y="462" width="133" height="9" id="SVGID_1_">
	<g filter="url(#Adobe_OpacityMaskFilter)">
		<path fill="#F63B0A" d="M367.642,459.953h-61.619h-61.619c0,46.326-23.157,63.449-23.157,63.449h84.776h84.776
			C390.799,523.402,367.642,506.279,367.642,459.953z"/>
	</g>
</mask>
<rect x="239.023" y="462" mask="url(#SVGID_1_)" fill="#612C0D" width="133" height="9"/>
<linearGradient id="SVGID_2_" gradientUnits="userSpaceOnUse" x1="304.5228" y1="462" x2="304.5228" y2="55">
	<stop  offset="0" style="stop-color:#FF621F"/>
	<stop  offset="0.8699" style="stop-color:#FF621F"/>
	<stop  offset="0.9446" style="stop-color:#FF814B"/>
	<stop  offset="1" style="stop-color:#FF7338"/>
</linearGradient>
<path fill="url(#SVGID_2_)" d="M410.227,55l-211.454,0.022c0,0-38.75,3.502-38.75,106.356s0,300.622,0,300.622h37.554h213.893
	h37.554c0,0,0-197.769,0-300.622S410.227,55,410.227,55z"/>
<rect x="228.023" y="152" fill="#612C0D" width="156" height="22"/>
<circle fill="#612C0D" cx="260.951" cy="362.522" r="6.67"/>
<circle fill="#612C0D" cx="306.023" cy="362.522" r="6.67"/>
<circle fill="#612C0D" cx="351.095" cy="362.522" r="6.67"/>
<circle fill="#612C0D" cx="260.951" cy="402.67" r="6.67"/>
<circle fill="#612C0D" cx="306.023" cy="402.67" r="6.67"/>
<circle fill="#612C0D" cx="351.095" cy="402.67" r="6.67"/>
<defs>
	<filter id="Adobe_OpacityMaskFilter_1_" filterUnits="userSpaceOnUse" x="253.671" y="40" width="120.041" height="123">
		<feColorMatrix  type="matrix" values="1 0 0 0 0  0 1 0 0 0  0 0 1 0 0  0 0 0 1 0"/>
	</filter>
</defs>
<mask maskUnits="userSpaceOnUse" x="253.671" y="40" width="120.041" height="123" id="SVGID_3_">
	<g filter="url(#Adobe_OpacityMaskFilter_1_)">
		<path fill="#FF621F" d="M411.576,55.276l-211.153,0.022c0,0-38.695,3.5-38.695,106.283s0,332.61,0,332.61h37.5h213.588h37.5
			c0,0,0-229.827,0-332.61S411.576,55.276,411.576,55.276z"/>
	</g>
</mask>
<path opacity="0.4" mask="url(#SVGID_3_)" fill="#612C0D" d="M369.412,40H258.563c-1.405,0-2.657,0.559-3.534,1.38l-1.358-1.324
	l1.025,52.099l1.326,66.564v0.003l0.147,4.193l1.463-1.173c0.901,0.75,2.153,1.259,3.488,1.259h89.805
	c2.69,0,5.175-1.929,5.522-4.234l17.225-114.515C374.019,41.945,372.102,40,369.412,40z"/>
<g>
	<g>
		<defs>
			<path id="SVGID_6_" d="M356.175,158.122c-0.197,2.683-2.56,4.878-5.25,4.878h-89.805c-2.69,0-5.053-2.195-5.25-4.878
				l-9.804-133.244c-0.197-2.683,1.842-4.878,4.532-4.878h110.849c2.69,0,4.73,2.195,4.532,4.878L356.175,158.122z"/>
		</defs>
		<clipPath id="SVGID_4_">
			<use xlink:href="#SVGID_6_"  overflow="visible"/>
		</clipPath>
	</g>
	<g>
		<defs>
			<path id="SVGID_8_" d="M356.175,158.122c-0.197,2.683-2.56,4.878-5.25,4.878h-89.805c-2.69,0-5.053-2.195-5.25-4.878
				l-9.804-133.244c-0.197-2.683,1.842-4.878,4.532-4.878h110.849c2.69,0,4.73,2.195,4.532,4.878L356.175,158.122z"/>
		</defs>
		<clipPath id="SVGID_5_">
			<use xlink:href="#SVGID_8_"  overflow="visible"/>
		</clipPath>
		<g clip-path="url(#SVGID_5_)">
			<path fill="#F4D791" d="M356.175,158.122c-0.197,2.683-2.56,4.878-5.25,4.878h-89.805c-2.69,0-5.053-2.195-5.25-4.878
				l-9.804-133.244c-0.197-2.683,1.842-4.878,4.532-4.878h110.849c2.69,0,4.73,2.195,4.532,4.878L356.175,158.122z"/>
		</g>
		<g clip-path="url(#SVGID_5_)">
			<path fill="#E8C25F" d="M245.707,19.984l69.078,74.704c1.826,1.975,1.799,5.181-0.062,7.125l-58.494,61.103"/>
			<path fill="none" stroke="#D4A94A" stroke-width="2.4457" stroke-miterlimit="10" d="M245.707,19.984l69.078,74.704
				c1.826,1.975,1.799,5.181-0.062,7.125l-58.494,61.103"/>
		</g>
		<g clip-path="url(#SVGID_5_)">
			
				<line fill="none" stroke="#D4A94A" stroke-width="2.4457" stroke-miterlimit="10" x1="355.816" y1="162.916" x2="300.088" y2="116.833"/>
		</g>
		<g clip-path="url(#SVGID_5_)">
			
				<line fill="none" stroke="#D4A94A" stroke-width="2.4457" stroke-miterlimit="10" x1="366.339" y1="19.984" x2="299.775" y2="78.747"/>
		</g>
	</g>
	<g>
		<defs>
			<path id="SVGID_10_" d="M356.175,158.122c-0.197,2.683-2.56,4.878-5.25,4.878h-89.805c-2.69,0-5.053-2.195-5.25-4.878
				l-9.804-133.244c-0.197-2.683,1.842-4.878,4.532-4.878h110.849c2.69,0,4.73,2.195,4.532,4.878L356.175,158.122z"/>
		</defs>
		<clipPath id="SVGID_7_">
			<use xlink:href="#SVGID_10_"  overflow="visible"/>
		</clipPath>
	</g>
</g>
<g>
	<path fill="#FFFFFF" d="M570.591,4.92c0,0,4.38-4.92,13.458-4.92c8.454,0,11.498,7.724,11.498,7.724s6.246-2.949,9.051-2.949
		s7.38,3.762,7.38,3.762s-7.814-0.434-9.301,3.043c0,0,8.867,3.318,8.867,9.98c0,5.493-3.328,8.682-3.328,8.682
		s-4.544-10.451-16.933-10.451c-15.752,0-19.719,6.93-19.719,6.93l-4.682-2.601c12.506-8.065,16.01-12.912,16.01-16.886
		C582.891,2.443,570.591,4.92,570.591,4.92z"/>
	<path fill="#FFFFFF" d="M554.255,37.072c-8.247,0-19.794,4.399-19.794,4.399s1.649-31.89-45.085-31.89S445.391,43.67,445.391,43.67
		s-6.914-6.598-23.093-6.598c-11.546,0-25.842,6.598-25.842,26.391c0,27.674,23.093,34.089,23.093,34.089
		s0.393,21.443,28.591,21.443c16.495,0,28.041-17.594,28.041-17.594s7.148,19.794,39.587,19.794c32.44,0,42.886-31.34,42.886-31.34
		s21.993-4.681,21.993-24.176C580.647,45.474,566.901,37.072,554.255,37.072z M519.552,59.027c0,6.46-3.914,10.211-3.914,10.211
		s-5.344-12.291-19.914-12.291c-18.525,0-23.19,8.15-23.19,8.15l-5.506-3.059c14.708-9.484,18.828-15.186,18.828-19.859
		c0-5.636-14.466-2.723-14.466-2.723s5.151-5.786,15.827-5.786c9.943,0,13.522,9.084,13.522,9.084s7.345-3.468,10.644-3.468
		c3.299,0,8.679,4.425,8.679,4.425s-9.19-0.511-10.939,3.579C509.124,47.289,519.552,51.192,519.552,59.027z"/>
</g>
</svg>
